<svg width="20" height="20" viewBox="0 0 20 20" fill="none" xmlns="http://www.w3.org/2000/svg">
<path d="M10 20C15.5228 20 20 15.5228 20 10C20 4.47715 15.5228 0 10 0C4.47715 0 0 4.47715 0 10C0 15.5228 4.47715 20 10 20Z" fill="#516AFF"/>
<path d="M11.7501 7.25L13.5001 8.25V3.25L10.0001 1.5L4.56262 4.5625V15.4375L10.0001 18.5625L15.3751 15.375V10L10.1876 6.875L8.43762 7.75L13.6251 10.8125L13.6876 14.5L10.0001 16.5625L6.25012 14.4375V5.4375L10.0001 3.375L11.7501 4.3125V7.25Z" fill="white"/>
<path d="M9.8125 10.25L11 9.625L12.3125 10.4375L8.4375 12.625V8.125L9.8125 8.9375" fill="white"/>
</svg>
