<svg width="20" height="20" viewBox="0 0 20 20" fill="none" xmlns="http://www.w3.org/2000/svg">
<path d="M10 20C15.523 20 20 15.523 20 10C20 4.477 15.523 0 10 0C4.477 0 0 4.477 0 10C0 15.523 4.477 20 10 20Z" fill="#070A0E"/>
<path fill-rule="evenodd" clip-rule="evenodd" d="M5.77704 13.353C5.47804 13.17 5.29504 12.845 5.29504 12.495V10.541C5.29504 10.309 5.48404 10.121 5.71604 10.122C5.79004 10.122 5.86304 10.142 5.92704 10.179L10.336 12.75C10.594 12.9 10.753 13.176 10.753 13.475V15.499C10.754 15.777 10.529 16.003 10.251 16.003C10.158 16.003 10.066 15.977 9.98704 15.929L5.77704 13.353ZM12.349 9.64403C12.607 9.79403 12.765 10.071 12.766 10.369V14.477C12.766 14.598 12.701 14.71 12.595 14.769L11.63 15.312C11.618 15.319 11.605 15.324 11.591 15.328V13.047C11.591 12.752 11.436 12.478 11.182 12.326L7.31004 10.01V7.43503C7.31004 7.20303 7.49904 7.01503 7.73104 7.01603C7.80504 7.01603 7.87804 7.03603 7.94204 7.07303L12.349 9.64403ZM14.279 6.61003C14.538 6.76003 14.697 7.03703 14.697 7.33603V13.336C14.696 13.459 14.628 13.572 14.52 13.631L13.605 14.125V9.94803C13.605 9.65303 13.45 9.38003 13.198 9.22803L9.24004 6.85403V4.41203C9.24004 4.33803 9.26004 4.26503 9.29604 4.20103C9.41304 4.00103 9.67004 3.93303 9.87004 4.04903L14.279 6.61003Z" fill="#00D395"/>
</svg>
