<svg width="20" height="20" viewBox="0 0 20 20" fill="none" xmlns="http://www.w3.org/2000/svg">
<path d="M10 0C15.5234 0 20 4.47754 20 10C20 15.5234 15.5234 20 10 20C4.47754 20 0 15.5229 0 10C0 4.47754 4.47754 0 10 0Z" fill="#F5AC37"/>
<path d="M10.3654 10.7061H14.1652C14.2462 10.7061 14.2845 10.7061 14.2903 10.5999C14.3214 10.2134 14.3214 9.82458 14.2903 9.43758C14.2903 9.36243 14.253 9.33138 14.1715 9.33138H6.60918C6.51558 9.33138 6.49038 9.36243 6.49038 9.45018V10.5626C6.49038 10.7061 6.49038 10.7061 6.64023 10.7061H10.3654ZM13.8659 8.03131C13.8767 8.00296 13.8767 7.97191 13.8659 7.94401C13.8025 7.80586 13.7273 7.67401 13.64 7.55026C13.5086 7.33876 13.3538 7.1439 13.1774 6.96885C13.0942 6.8631 12.9979 6.76815 12.8899 6.6876C12.349 6.22724 11.7059 5.90144 11.0147 5.73764C10.666 5.65934 10.3096 5.62199 9.95226 5.62514H6.59613C6.50253 5.62514 6.48992 5.66249 6.48992 5.74394V7.96246C6.48992 8.05606 6.48992 8.08126 6.60873 8.08126H13.8209C13.8209 8.08126 13.8835 8.06866 13.8961 8.03131H13.8655H13.8659ZM13.8659 12.0062C13.7597 11.9945 13.6526 11.9945 13.5464 12.0062H6.61548C6.52188 12.0062 6.49038 12.0062 6.49038 12.1313V14.3003C6.49038 14.4002 6.49038 14.4254 6.61548 14.4254H9.81546C9.96846 14.4371 10.1215 14.4263 10.2713 14.3944C10.7357 14.3611 11.1925 14.2603 11.6281 14.0942C11.7865 14.0393 11.9395 13.9678 12.0839 13.8818H12.1276C12.8777 13.4917 13.487 12.8788 13.8713 12.1264C13.8713 12.1264 13.915 12.0319 13.8659 12.0071V12.0062ZM5.23441 15.55V15.5126V14.0564V13.5628V12.094C5.23441 12.0125 5.23441 12.0004 5.13451 12.0004H3.7782C3.70305 12.0004 3.672 12.0004 3.672 11.9005V10.7129H5.12191C5.20291 10.7129 5.23441 10.7129 5.23441 10.6067V9.43173C5.23441 9.35658 5.23441 9.33813 5.13451 9.33813H3.7782C3.70305 9.33813 3.672 9.33813 3.672 9.23822V8.13841C3.672 8.06956 3.672 8.05111 3.7719 8.05111H5.11561C5.20921 8.05111 5.23441 8.05111 5.23441 7.93231V4.56358C5.23441 4.46368 5.23441 4.43848 5.35951 4.43848H10.0468C10.387 4.45198 10.7249 4.48933 11.0593 4.55098C11.7482 4.67833 12.4102 4.92448 13.0154 5.27593C13.4168 5.51219 13.7863 5.79749 14.1153 6.12599C14.3628 6.38295 14.586 6.66105 14.784 6.95715C14.9806 7.25731 15.144 7.57816 15.2722 7.91341C15.288 8.00071 15.3717 8.05966 15.459 8.04481H16.5777C16.7212 8.04481 16.7212 8.04481 16.7275 8.18251V9.20762C16.7275 9.30753 16.6902 9.33273 16.5898 9.33273H15.7272C15.6399 9.33273 15.6147 9.33273 15.621 9.44523C15.6552 9.82593 15.6552 10.208 15.621 10.5887C15.621 10.6949 15.621 10.7075 15.7402 10.7075H16.7271C16.7707 10.7637 16.7271 10.82 16.7271 10.8767C16.7334 10.9491 16.7334 11.0225 16.7271 11.0949V11.8514C16.7271 11.9576 16.696 11.9891 16.602 11.9891H15.4207C15.3384 11.9734 15.2583 12.026 15.2394 12.1079C14.9581 12.8392 14.5081 13.4948 13.9267 14.0204C13.7143 14.2117 13.4911 14.3917 13.258 14.5577C13.0078 14.7017 12.7643 14.8516 12.5078 14.9704C12.0358 15.1828 11.5408 15.3394 11.0327 15.4388C10.5503 15.5252 10.0612 15.5644 9.57021 15.5576H5.23261V15.5513L5.23441 15.55Z" fill="#FEFEFD"/>
</svg>
