<svg width="16" height="16" viewBox="0 0 16 16" fill="none" xmlns="http://www.w3.org/2000/svg">
<circle cx="8" cy="8" r="8" fill="#141414"/>
<path d="M13.1569 5.27005C12.6962 4.4126 11.3692 3.71106 9.8255 4.11951C9.08787 4.31275 8.44429 4.72714 7.99992 5.29499C7.55556 4.72714 6.91198 4.31275 6.17434 4.11951C4.62724 3.71729 3.30361 4.4126 2.84292 5.27005C2.19657 6.47047 2.46473 7.82056 3.64053 9.2829C4.56192 10.4272 5.87867 11.5871 7.79021 12.9341C7.85062 12.9768 7.92503 13 8.00164 13C8.07825 13 8.15267 12.9768 8.21308 12.9341C10.1212 11.5902 11.4414 10.4397 12.3628 9.2829C13.5351 7.82056 13.8033 6.47047 13.1569 5.27005Z" fill="white"/>
</svg>
