<svg width="22" height="22" viewBox="0 0 22 22" fill="none" xmlns="http://www.w3.org/2000/svg">
<path fill-rule="evenodd" clip-rule="evenodd" d="M22 11C22 17.0751 17.0751 22 11 22C4.92487 22 0 17.0751 0 11C0 4.92487 4.92487 0 11 0C17.0751 0 22 4.92487 22 11ZM13.2 6.8363C13.2 8.06032 11 12.1 11 12.1C11 12.1 8.8 8.06032 8.8 6.8363C8.8 5.61227 9.78498 4.62 11 4.62C12.215 4.62 13.2 5.61227 13.2 6.8363ZM11 17.38C12.215 17.38 13.2 16.395 13.2 15.18C13.2 13.965 12.215 12.98 11 12.98C9.78498 12.98 8.8 13.965 8.8 15.18C8.8 16.395 9.78498 17.38 11 17.38Z" fill="#FFB647"/>
</svg>
