<svg width="16" height="16" viewBox="0 0 16 16" fill="none" xmlns="http://www.w3.org/2000/svg">
<circle cx="8" cy="8" r="8" fill="#141414"/>
<path fill-rule="evenodd" clip-rule="evenodd" d="M12.2764 5.74413L12.276 5.74335C12.0589 5.33927 11.2297 4.78238 10.0813 5.08624L10.0789 5.08687C9.53992 5.22807 9.08892 5.52602 8.78746 5.91127L7.99992 6.91765L7.21239 5.91127C6.91109 5.52623 6.46041 5.22839 5.9218 5.0871C4.76422 4.78656 3.93931 5.34226 3.72382 5.74335L3.7234 5.74413C3.34052 6.45523 3.38306 7.36669 4.41963 8.656C5.20322 9.6291 6.33042 10.6508 8.00183 11.8568C9.67334 10.6524 10.7999 9.63997 11.5806 8.65987L11.5825 8.65739C12.6165 7.36764 12.6596 6.4557 12.2764 5.74413ZM3.64053 9.2829C2.46473 7.82056 2.19657 6.47047 2.84292 5.27005C3.30361 4.4126 4.62724 3.71729 6.17434 4.11951C6.57071 4.22335 6.93992 4.39104 7.26566 4.61209C7.54611 4.80241 7.79434 5.03228 7.99992 5.29499C8.20551 5.03228 8.45374 4.80241 8.73419 4.61209C9.05993 4.39104 9.42913 4.22335 9.8255 4.11951C11.3692 3.71106 12.6962 4.4126 13.1569 5.27005C13.8033 6.47047 13.5351 7.82056 12.3628 9.2829C11.4414 10.4397 10.1212 11.5902 8.21308 12.9341C8.15267 12.9768 8.07825 13 8.00164 13C7.92503 13 7.85062 12.9768 7.79021 12.9341C5.87867 11.5871 4.56192 10.4272 3.64053 9.2829Z" fill="white"/>
</svg>
