<svg width="20" height="20" viewBox="0 0 20 20" fill="none" xmlns="http://www.w3.org/2000/svg">
<path d="M10 19.7001C15.3572 19.7001 19.7001 15.3572 19.7001 10C19.7001 4.64289 15.3572 0.300049 10 0.300049C4.64289 0.300049 0.300049 4.64289 0.300049 10C0.300049 15.3572 4.64289 19.7001 10 19.7001Z" fill="url(#paint0_linear)"/>
<path d="M14.2451 13.865L10.9651 5.93495C10.7801 5.52495 10.5051 5.32495 10.1426 5.32495H9.85257C9.49007 5.32495 9.21507 5.52495 9.03007 5.93495L7.60257 9.38996H6.52257C6.20007 9.39246 5.93757 9.65246 5.93507 9.97746V9.98496C5.93757 10.3075 6.20007 10.57 6.52257 10.5725H7.10257L5.74007 13.865C5.71507 13.9375 5.70007 14.0125 5.70007 14.09C5.70007 14.275 5.75757 14.42 5.86007 14.5325C5.96257 14.645 6.11007 14.7 6.29507 14.7C6.41757 14.6975 6.53507 14.66 6.63257 14.5875C6.73757 14.515 6.81007 14.41 6.86757 14.29L8.36757 10.57H9.40757C9.73007 10.5675 9.99257 10.3075 9.99507 9.98246V9.96746C9.99257 9.64496 9.73007 9.38246 9.40757 9.37996H8.85257L9.99757 6.52745L13.1176 14.2875C13.1751 14.4075 13.2476 14.5125 13.3526 14.585C13.4501 14.6575 13.5701 14.695 13.6901 14.6975C13.8751 14.6975 14.0201 14.6425 14.1251 14.53C14.2301 14.4175 14.2851 14.2725 14.2851 14.0875C14.2876 14.0125 14.2751 13.935 14.2451 13.865Z" fill="white"/>
<defs>
<linearGradient id="paint0_linear" x1="17.2322" y1="3.91471" x2="2.79863" y2="16.0591" gradientUnits="userSpaceOnUse">
<stop stop-color="#B6509E"/>
<stop offset="1" stop-color="#2EBAC6"/>
</linearGradient>
</defs>
</svg>
