<svg width="16" height="16" viewBox="0 0 16 16" fill="none" xmlns="http://www.w3.org/2000/svg">
<path d="M15.8218 6.96197H14.0116C13.9088 6.96197 13.8105 7.00641 13.7412 7.08419L8.84922 12.6906V0.177771C8.84922 0.0799971 8.76877 0 8.67044 0H7.32956C7.23123 0 7.15078 0.0799971 7.15078 0.177771V12.6906L2.2588 7.08419C2.19176 7.00641 2.09342 6.96197 1.98839 6.96197H0.1782C0.0262337 6.96197 -0.0564539 7.14196 0.0441121 7.25529L7.46141 15.755C7.52846 15.8319 7.61135 15.8936 7.70447 15.9358C7.79759 15.9781 7.89875 16 8.00112 16C8.10348 16 8.20465 15.9781 8.29777 15.9358C8.39088 15.8936 8.47377 15.8319 8.54082 15.755L15.9559 7.25529C16.0565 7.13974 15.9738 6.96197 15.8218 6.96197Z" fill="#666666"/>
</svg>
