<svg width="16" height="16" viewBox="0 0 16 16" fill="none" xmlns="http://www.w3.org/2000/svg">
<path d="M8 16C12.4334 16 16 12.4334 16 8C16 3.56664 12.4334 0 8 0C3.56664 0 0 3.56664 0 8C0 12.4334 3.56664 16 8 16Z" fill="#2775CA"/>
<path d="M10.1999 9.26666C10.1999 8.10001 9.49992 7.70001 8.09992 7.53337C7.09992 7.40001 6.89992 7.13337 6.89992 6.66665C6.89992 6.19993 7.23328 5.90001 7.89992 5.90001C8.49992 5.90001 8.83328 6.10001 8.99992 6.60001C9.03328 6.70001 9.13328 6.76665 9.23328 6.76665H9.76656C9.89992 6.76665 9.99992 6.66665 9.99992 6.53337V6.50001C9.86656 5.76665 9.26656 5.20001 8.49992 5.13337V4.33336C8.49992 4.2 8.39992 4.1 8.23328 4.06664H7.73328C7.59992 4.06664 7.49992 4.16664 7.46656 4.33336V5.10001C6.46656 5.23337 5.83328 5.90001 5.83328 6.73337C5.83328 7.83337 6.49992 8.26666 7.89992 8.43338C8.83328 8.60002 9.13328 8.80002 9.13328 9.33338C9.13328 9.86674 8.66656 10.2334 8.03328 10.2334C7.16656 10.2334 6.86656 9.86666 6.76656 9.36666C6.73328 9.23338 6.63328 9.16666 6.53328 9.16666H5.96656C5.83328 9.16666 5.73328 9.26666 5.73328 9.40002V9.43338C5.86656 10.2667 6.39992 10.8667 7.49992 11.0334V11.8334C7.49992 11.9667 7.59992 12.0667 7.76656 12.1H8.26656C8.39992 12.1 8.49992 12 8.53328 11.8334V11.0334C9.53328 10.8667 10.1999 10.1667 10.1999 9.26666Z" fill="white"/>
<path d="M6.30004 12.7667C3.70004 11.8334 2.36668 8.93338 3.3334 6.36664C3.8334 4.96663 4.9334 3.89998 6.30004 3.39998C6.4334 3.33334 6.50004 3.23334 6.50004 3.06662V2.59998C6.50004 2.46661 6.4334 2.36661 6.30004 2.33333C6.26668 2.33333 6.20004 2.33333 6.16668 2.36661C3.00004 3.36662 1.26668 6.73336 2.26668 9.90002C2.86668 11.7667 4.30004 13.2 6.16668 13.8C6.30004 13.8667 6.4334 13.8 6.46668 13.6667C6.50004 13.6334 6.50004 13.6 6.50004 13.5334V13.0667C6.50004 12.9667 6.40004 12.8334 6.30004 12.7667ZM9.8334 2.36661C9.70004 2.29997 9.56668 2.36661 9.5334 2.49997C9.50004 2.53334 9.50004 2.56662 9.50004 2.63334V3.09998C9.50004 3.23334 9.60004 3.36662 9.70004 3.43334C12.3 4.36663 13.6334 7.26665 12.6667 9.83338C12.1667 11.2334 11.0667 12.3 9.70004 12.8C9.56668 12.8667 9.50004 12.9667 9.50004 13.1334V13.6C9.50004 13.7334 9.56668 13.8334 9.70004 13.8667C9.7334 13.8667 9.80004 13.8667 9.8334 13.8334C13 12.8334 14.7334 9.46666 13.7334 6.3C13.1334 4.39999 11.6667 2.96662 9.8334 2.36661Z" fill="white"/>
</svg>
