<svg width="20" height="16" viewBox="0 0 20 16" fill="none" xmlns="http://www.w3.org/2000/svg">
<path d="M9.99892 19.9978C15.5212 19.9978 19.9978 15.5212 19.9978 9.99892C19.9978 4.47667 15.5212 0 9.99892 0C4.47667 0 0 4.47667 0 9.99892C0 15.5212 4.47667 19.9978 9.99892 19.9978Z" fill="url(#paint0_linear)"/>
<path d="M6.70528 7.51292C6.62535 7.4137 6.50409 7.35858 6.37455 7.35858H3.70395C3.6819 7.35858 3.66261 7.35031 3.64607 7.33653C3.63229 7.32275 3.62402 7.30622 3.62402 7.28693V5.48723C3.62402 5.46794 3.63229 5.4514 3.64607 5.43762C3.66261 5.42109 3.6819 5.41282 3.70395 5.41557H6.52614C7.2372 5.41557 7.85179 5.70771 8.36993 6.28924L9.05619 7.12708L7.7195 8.7559L6.70528 7.51292ZM11.6386 6.28097C12.154 5.70496 12.7713 5.41557 13.4907 5.41557H16.3046C16.3239 5.41282 16.3432 5.42109 16.3569 5.43211C16.3707 5.44589 16.3762 5.46518 16.3735 5.48723V7.28693C16.3735 7.30622 16.368 7.32275 16.3569 7.33653C16.3432 7.35307 16.3239 7.36134 16.3046 7.35858H13.634C13.5072 7.35583 13.3859 7.4137 13.3032 7.51292L11.3354 9.90792L13.3115 12.3195C13.3914 12.4104 13.51 12.4655 13.6312 12.4628H16.3018C16.3211 12.46 16.3432 12.471 16.3542 12.4848C16.3652 12.5014 16.3735 12.5234 16.3707 12.5427V14.3424C16.3707 14.3617 16.3652 14.3782 16.3542 14.392C16.3404 14.4085 16.3211 14.4168 16.3018 14.414H13.4907C12.7713 14.414 12.1595 14.1219 11.6469 13.5404L10.0098 11.5423L8.37269 13.5404C7.85731 14.1219 7.23995 14.414 6.52063 14.414H3.70395C3.68466 14.4168 3.66261 14.4058 3.65158 14.392C3.6378 14.3755 3.63229 14.3534 3.63505 14.3341V12.5344C3.63505 12.5151 3.64056 12.4986 3.65158 12.4848C3.66536 12.4683 3.68466 12.46 3.70395 12.4628H6.37455C6.50133 12.4628 6.6226 12.4049 6.70528 12.3084L8.63727 9.94926L11.6386 6.28097Z" fill="#00D1FF"/>
<defs>
<linearGradient id="paint0_linear" x1="10.0003" y1="-5.78769e-05" x2="10.0003" y2="5.29154" gradientUnits="userSpaceOnUse">
<stop stop-color="#090220"/>
<stop offset="1" stop-color="#170659"/>
</linearGradient>
</defs>
</svg>
