<svg width="16" height="16" viewBox="0 0 16 16" fill="none" xmlns="http://www.w3.org/2000/svg">
<g clip-path="url(#clip0)">
<path d="M13.0463 3.35786L12.6069 3.79718C13.6552 4.94356 14.2366 6.44073 14.2366 7.99414C14.2366 9.54755 13.6552 11.0447 12.6069 12.1911L13.0463 12.6304C14.2121 11.3659 14.8593 9.70894 14.8593 7.98902C14.8593 6.26909 14.2121 4.61214 13.0463 3.34761V3.35786Z" fill="#5A5564"/>
<path d="M3.80748 3.39594C4.95386 2.34765 6.45103 1.76632 8.00444 1.76632C9.55785 1.76632 11.055 2.34765 12.2014 3.39594L12.6407 2.95662C11.3762 1.79081 9.71924 1.14357 7.99932 1.14357C6.27939 1.14357 4.62244 1.79081 3.35791 2.95662L3.80748 3.39594Z" fill="#5A5564"/>
<path d="M3.39592 12.1955C2.34888 11.0494 1.76831 9.55312 1.76831 8.00073C1.76831 6.44835 2.34888 4.95209 3.39592 3.80597L2.95661 3.36665C1.7908 4.63118 1.14355 6.28813 1.14355 8.00806C1.14355 9.72798 1.7908 11.3849 2.95661 12.6495L3.39592 12.1955Z" fill="#5A5564"/>
<path d="M12.1955 12.6011C11.0492 13.6494 9.552 14.2308 7.99859 14.2308C6.44517 14.2308 4.948 13.6494 3.80162 12.6011L3.3623 13.0405C4.62684 14.2063 6.28378 14.8535 8.00371 14.8535C9.72364 14.8535 11.3806 14.2063 12.6451 13.0405L12.1955 12.6011Z" fill="#5A5564"/>
<path d="M10.7737 6.53414C10.6858 5.61743 9.89504 5.3099 8.89486 5.21618V3.95387H8.12166V5.19275C7.91811 5.19275 7.71016 5.19275 7.50368 5.19275V3.95387H6.73634V5.22497H5.16797V6.05235C5.16797 6.05235 5.73908 6.0421 5.7303 6.05235C5.83327 6.04102 5.93663 6.07011 6.01858 6.13349C6.10053 6.19686 6.15468 6.28958 6.16962 6.39209V9.8715C6.16742 9.90765 6.15799 9.943 6.14189 9.97545C6.12579 10.0079 6.10335 10.0368 6.0759 10.0604C6.04895 10.0845 6.01742 10.1029 5.9832 10.1144C5.94897 10.126 5.91276 10.1305 5.87674 10.1278C5.88699 10.1366 5.31441 10.1278 5.31441 10.1278L5.16797 11.0518H6.72169V12.3434H7.4949V11.0708H8.11287V12.3375H8.88754V11.0606C10.1938 10.9815 11.1046 10.6593 11.2189 9.43657C11.3111 8.4525 10.8484 8.01318 10.1088 7.83599C10.5584 7.61486 10.8367 7.20483 10.7737 6.53414ZM9.69003 9.28428C9.69003 10.2449 8.04404 10.1351 7.51979 10.1351V8.43053C8.04404 8.432 9.69003 8.28117 9.69003 9.28428ZM9.33125 6.88267C9.33125 7.7613 7.95765 7.6544 7.52126 7.6544V6.10507C7.95765 6.10507 9.33125 5.96742 9.33125 6.88267Z" fill="#F09242"/>
<path d="M7.99854 16C6.41641 15.9997 4.8699 15.5303 3.55453 14.6511C2.23916 13.772 1.21401 12.5225 0.608687 11.0608C0.00336759 9.59902 -0.154936 7.99061 0.153793 6.4389C0.462521 4.88719 1.22442 3.46186 2.34315 2.34313C3.46188 1.22439 4.88721 0.462497 6.43892 0.153769C7.99063 -0.154959 9.59905 0.00334375 11.0608 0.608663C12.5225 1.21398 13.772 2.23914 14.6512 3.5545C15.5303 4.86987 15.9997 6.41639 16 7.99852C16.0002 9.04934 15.7934 10.0899 15.3913 11.0608C14.9893 12.0316 14.3999 12.9138 13.6569 13.6568C12.9138 14.3999 12.0317 14.9893 11.0608 15.3913C10.0899 15.7933 9.04936 16.0002 7.99854 16ZM7.99854 0.623813C6.54091 0.624971 5.11635 1.05823 3.9049 1.86882C2.69345 2.67942 1.74951 3.83096 1.19237 5.17791C0.635226 6.52486 0.489905 8.00674 0.77477 9.43626C1.05964 10.8658 1.7619 12.1788 2.7928 13.2092C3.8237 14.2397 5.13696 14.9415 6.56659 15.2258C7.99622 15.5101 9.47805 15.3642 10.8248 14.8065C12.1715 14.2488 13.3227 13.3044 14.1328 12.0926C14.9429 10.8809 15.3756 9.45614 15.3762 7.99852C15.3766 7.0297 15.186 6.07031 14.8153 5.17521C14.4446 4.2801 13.9012 3.46684 13.216 2.78192C12.5308 2.097 11.7173 1.55386 10.8221 1.18355C9.92682 0.813248 8.96735 0.623043 7.99854 0.623813Z" fill="#282138"/>
</g>
<defs>
<clipPath id="clip0">
<rect width="16" height="16" fill="white"/>
</clipPath>
</defs>
</svg>
