<svg width="56" height="56" viewBox="0 0 56 56" fill="none" xmlns="http://www.w3.org/2000/svg">
<g filter="url(#filter0_i)">
<path d="M18.1083 20.496L26 13.0412V35C26 36.1046 26.8954 37 28 37C29.1046 37 30 36.1046 30 35V13.0412L37.8918 20.4964C38.603 21.1679 39.7558 21.1679 40.4666 20.4964C41.1778 19.8249 41.1778 18.7357 40.4666 18.0639L29.5979 7.79695C29.2328 7.31291 28.653 7 28 7C27.3474 7 26.7678 7.31255 26.4028 7.79612L15.5336 18.0636C14.8221 18.7354 14.8221 19.8245 15.5336 20.496C16.2444 21.1676 17.3971 21.1676 18.1083 20.496Z" fill="#8CBBFF"/>
<path d="M18.1083 20.496L26 13.0412V35C26 36.1046 26.8954 37 28 37C29.1046 37 30 36.1046 30 35V13.0412L37.8918 20.4964C38.603 21.1679 39.7558 21.1679 40.4666 20.4964C41.1778 19.8249 41.1778 18.7357 40.4666 18.0639L29.5979 7.79695C29.2328 7.31291 28.653 7 28 7C27.3474 7 26.7678 7.31255 26.4028 7.79612L15.5336 18.0636C14.8221 18.7354 14.8221 19.8245 15.5336 20.496C16.2444 21.1676 17.3971 21.1676 18.1083 20.496Z" fill="url(#paint0_linear)"/>
<path d="M13 26H21V30H13L13 44H43V30H35V26H43C45.2091 26 47 27.7909 47 30V44C47 46.2091 45.2091 48 43 48H13C10.7909 48 9 46.2091 9 44V30C9 27.7909 10.7909 26 13 26Z" fill="#8CBBFF"/>
<path d="M13 26H21V30H13L13 44H43V30H35V26H43C45.2091 26 47 27.7909 47 30V44C47 46.2091 45.2091 48 43 48H13C10.7909 48 9 46.2091 9 44V30C9 27.7909 10.7909 26 13 26Z" fill="url(#paint1_linear)"/>
</g>
<defs>
<filter id="filter0_i" x="9" y="7" width="38" height="41" filterUnits="userSpaceOnUse" color-interpolation-filters="sRGB">
<feFlood flood-opacity="0" result="BackgroundImageFix"/>
<feBlend mode="normal" in="SourceGraphic" in2="BackgroundImageFix" result="shape"/>
<feColorMatrix in="SourceAlpha" type="matrix" values="0 0 0 0 0 0 0 0 0 0 0 0 0 0 0 0 0 0 127 0" result="hardAlpha"/>
<feOffset/>
<feGaussianBlur stdDeviation="1"/>
<feComposite in2="hardAlpha" operator="arithmetic" k2="-1" k3="1"/>
<feColorMatrix type="matrix" values="0 0 0 0 0 0 0 0 0 0 0 0 0 0 0 0 0 0 0.4 0"/>
<feBlend mode="normal" in2="shape" result="effect1_innerShadow"/>
</filter>
<linearGradient id="paint0_linear" x1="28" y1="6" x2="28" y2="48" gradientUnits="userSpaceOnUse">
<stop stop-color="#8CBBFF"/>
<stop offset="1" stop-color="#579BFE"/>
</linearGradient>
<linearGradient id="paint1_linear" x1="28" y1="6" x2="28" y2="48" gradientUnits="userSpaceOnUse">
<stop stop-color="#8CBBFF"/>
<stop offset="1" stop-color="#579BFE"/>
</linearGradient>
</defs>
</svg>
