<svg width="374" height="308" viewBox="0 0 374 308" fill="none" xmlns="http://www.w3.org/2000/svg">
<path opacity="0.2" fill-rule="evenodd" clip-rule="evenodd" d="M249.067 4.08996C301.552 -9.88832 346.672 14.1202 362.336 43.4639C384.311 84.5451 375.194 130.748 335.334 180.793C304.007 220.38 259.12 259.754 194.245 305.744C192.191 307.206 189.661 308 187.056 308C184.451 308 181.921 307.206 179.867 305.744C114.875 259.647 70.1052 219.953 38.7781 180.793C-1.19902 130.748 -10.3166 84.5451 11.6591 43.4639C27.3227 14.1202 72.3262 -9.67492 124.928 4.08996C150.007 10.7028 171.889 24.8844 186.997 44.3175C202.106 24.8844 223.987 10.7028 249.067 4.08996ZM194.232 152.39C202.65 149.588 208.719 141.653 208.719 132.302C208.719 120.611 199.232 111.134 187.53 111.134C175.827 111.134 166.34 120.611 166.34 132.302C166.34 141.653 172.409 149.588 180.827 152.39L166.34 195.808H208.719L194.232 152.39Z" fill="#494B4D"/>
</svg>
