<svg width="56" height="56" viewBox="0 0 56 56" fill="none" xmlns="http://www.w3.org/2000/svg">
<g filter="url(#filter0_i)">
<path fill-rule="evenodd" clip-rule="evenodd" d="M7 24.5V45.0625C7 46.9955 8.567 48.5625 10.5 48.5625H31.5L40.4688 40.0312L49 31.0625V10.5C49 8.567 47.433 7 45.5 7H24.5L15.5312 15.5312L7 24.5ZM24.5 10.5V21C24.5 22.933 22.933 24.5 21 24.5H10.5L10.5 45.0625H31.5V34.5625C31.5 32.6295 33.067 31.0625 35 31.0625H45.5V10.5H24.5ZM40.8402 34.5625H35V40.4027L37.9931 37.5556L40.8402 34.5625ZM21 21H15.1598L18.0069 18.0069L21 15.1598V21Z" fill="#8CBBFF"/>
<path fill-rule="evenodd" clip-rule="evenodd" d="M7 24.5V45.0625C7 46.9955 8.567 48.5625 10.5 48.5625H31.5L40.4688 40.0312L49 31.0625V10.5C49 8.567 47.433 7 45.5 7H24.5L15.5312 15.5312L7 24.5ZM24.5 10.5V21C24.5 22.933 22.933 24.5 21 24.5H10.5L10.5 45.0625H31.5V34.5625C31.5 32.6295 33.067 31.0625 35 31.0625H45.5V10.5H24.5ZM40.8402 34.5625H35V40.4027L37.9931 37.5556L40.8402 34.5625ZM21 21H15.1598L18.0069 18.0069L21 15.1598V21Z" fill="url(#paint0_linear)"/>
</g>
<defs>
<filter id="filter0_i" x="7" y="7" width="42" height="41.5625" filterUnits="userSpaceOnUse" color-interpolation-filters="sRGB">
<feFlood flood-opacity="0" result="BackgroundImageFix"/>
<feBlend mode="normal" in="SourceGraphic" in2="BackgroundImageFix" result="shape"/>
<feColorMatrix in="SourceAlpha" type="matrix" values="0 0 0 0 0 0 0 0 0 0 0 0 0 0 0 0 0 0 127 0" result="hardAlpha"/>
<feOffset/>
<feGaussianBlur stdDeviation="1"/>
<feComposite in2="hardAlpha" operator="arithmetic" k2="-1" k3="1"/>
<feColorMatrix type="matrix" values="0 0 0 0 0 0 0 0 0 0 0 0 0 0 0 0 0 0 0.4 0"/>
<feBlend mode="normal" in2="shape" result="effect1_innerShadow"/>
</filter>
<linearGradient id="paint0_linear" x1="28" y1="7" x2="28" y2="48.5625" gradientUnits="userSpaceOnUse">
<stop stop-color="#8CBBFF"/>
<stop offset="1" stop-color="#579BFE"/>
</linearGradient>
</defs>
</svg>
