<svg width="56" height="56" viewBox="0 0 56 56" fill="none" xmlns="http://www.w3.org/2000/svg">
<g filter="url(#filter0_i)">
<path d="M10.5 10.5H45.5V24.5H49V10.5C49 8.567 47.433 7 45.5 7H10.5C8.567 7 7 8.567 7 10.5V21H4.375L8.75 28L13.125 21H10.5L10.5 10.5Z" fill="#8CBBFF"/>
<path d="M10.5 10.5H45.5V24.5H49V10.5C49 8.567 47.433 7 45.5 7H10.5C8.567 7 7 8.567 7 10.5V21H4.375L8.75 28L13.125 21H10.5L10.5 10.5Z" fill="url(#paint0_linear)"/>
<path d="M7 31.5V45.0625C7 46.9955 8.567 48.5625 10.5 48.5625H45.5C47.433 48.5625 49 46.9955 49 45.0625V35H51.625L47.25 28L42.875 35H45.5V45.0625H10.5L10.5 31.5H7Z" fill="#8CBBFF"/>
<path d="M7 31.5V45.0625C7 46.9955 8.567 48.5625 10.5 48.5625H45.5C47.433 48.5625 49 46.9955 49 45.0625V35H51.625L47.25 28L42.875 35H45.5V45.0625H10.5L10.5 31.5H7Z" fill="url(#paint1_linear)"/>
</g>
<defs>
<filter id="filter0_i" x="4.375" y="7" width="47.25" height="41.5625" filterUnits="userSpaceOnUse" color-interpolation-filters="sRGB">
<feFlood flood-opacity="0" result="BackgroundImageFix"/>
<feBlend mode="normal" in="SourceGraphic" in2="BackgroundImageFix" result="shape"/>
<feColorMatrix in="SourceAlpha" type="matrix" values="0 0 0 0 0 0 0 0 0 0 0 0 0 0 0 0 0 0 127 0" result="hardAlpha"/>
<feOffset/>
<feGaussianBlur stdDeviation="1"/>
<feComposite in2="hardAlpha" operator="arithmetic" k2="-1" k3="1"/>
<feColorMatrix type="matrix" values="0 0 0 0 0 0 0 0 0 0 0 0 0 0 0 0 0 0 0.4 0"/>
<feBlend mode="normal" in2="shape" result="effect1_innerShadow"/>
</filter>
<linearGradient id="paint0_linear" x1="28" y1="7" x2="28" y2="48.5625" gradientUnits="userSpaceOnUse">
<stop stop-color="#8CBBFF"/>
<stop offset="1" stop-color="#579BFE"/>
</linearGradient>
<linearGradient id="paint1_linear" x1="28" y1="7" x2="28" y2="48.5625" gradientUnits="userSpaceOnUse">
<stop stop-color="#8CBBFF"/>
<stop offset="1" stop-color="#579BFE"/>
</linearGradient>
</defs>
</svg>
